<svg xmlns="http://www.w3.org/2000/svg" xml:space="preserve" viewBox="0 0 256 256">
  <path d="M109 11c-15 2-29 8-38 15a79 79 0 0 0-25 67v10h-5c-4-1-5 0-7 2-4 3-6 8-5 17 1 20 12 43 24 51 4 3 5 4 6 10 6 25 30 51 56 60 10 4 16 4 26 1a93 93 0 0 0 56-61c2-6 2-7 4-8 4-2 12-11 16-17 6-11 11-27 11-39 0-11-5-17-13-16h-5V92c2-41-12-67-42-77l-16-4h-43zM99 58c9 4 20 18 26 34l3 7 3-7c4-10 11-21 16-27 12-12 27-13 36-3 6 7 9 22 10 50l1 18 3-2 5-3c2 0 5-1 7-3l3-2v3c0 5-3 17-7 24-4 9-9 14-14 16s-6 3-8 14c-4 22-23 44-46 52-7 3-11 3-18 0-23-8-41-30-46-53l-2-10-6-3c-5-3-10-8-15-18-3-6-6-18-6-23v-3l3 3 7 3 6 3 2 2 1-22c0-25 2-33 6-41 7-11 18-15 30-9z"/>
  <path fill="#ede" d="M99 58c9 4 20 18 26 34l3 7 3-7c4-10 11-21 16-27 12-12 27-13 36-3 6 7 9 22 10 50l1 18 3-2 5-3c2 0 5-1 7-3l3-2v3c0 5-3 17-7 24-4 9-9 14-14 16s-6 3-8 14c-4 22-23 44-46 52-7 3-11 3-18 0-23-8-41-30-46-53l-2-10-6-3c-5-3-10-8-15-18-3-6-6-18-6-23v-3l3 3 7 3 6 3 2 2 1-22c0-25 2-33 6-41 7-11 18-15 30-9Z"/>
  <path d="M73 129c0 6 13 21 21 25 10 4 23-3 24-13v-3l-21-4a1790 1790 0 0 1-24-5zm87 4c-15 3-22 5-22 6v3c0 3 6 8 10 11 6 2 14 3 19 0 5-2 10-8 13-14l3-11-23 5zm-68 51c0 1 9 7 14 9l3 2v8c0 8 0 8 2 6l5-6 3-4h18l3 4 5 6 2 2v-16l3-2c5-2 14-8 14-9h-2a289 289 0 0 1-70 0z"/>
</svg>